HIERARCHY
ROOT root
{
	OFFSET 0.000000 0.000000 0.000000
	CHANNELS 6 Xposition Yposition Zposition Zrotation Yrotation Xrotation
	JOINT lhip
	{
		OFFSET 0.058581 -0.082280 -0.017664
		CHANNELS 3 Zrotation Yrotation Xrotation
		JOINT lknee
		{
			OFFSET 0.043451 -0.386469 0.008037
			CHANNELS 3 Zrotation Yrotation Xrotation
			JOINT lankle
			{
				OFFSET -0.014790 -0.426874 -0.037428
				CHANNELS 3 Zrotation Yrotation Xrotation
				JOINT ltoe
				{
					OFFSET 0.041054 -0.060286 0.122042
					CHANNELS 3 Zrotation Yrotation Xrotation
					End Site
					{
						OFFSET 0.000000 0.000000 0.000000
					}
				}
			}
		}
	}
	JOINT rhip
	{
		OFFSET -0.060310 -0.090513 -0.013543
		CHANNELS 3 Zrotation Yrotation Xrotation
		JOINT rknee
		{
			OFFSET -0.043257 -0.383688 -0.004843
			CHANNELS 3 Zrotation Yrotation Xrotation
			JOINT rankle
			{
				OFFSET 0.019056 -0.420046 -0.034562
				CHANNELS 3 Zrotation Yrotation Xrotation
				JOINT rtoe
				{
					OFFSET -0.034840 -0.062106 0.130323
					CHANNELS 3 Zrotation Yrotation Xrotation
					End Site
					{
						OFFSET 0.000000 0.000000 0.000000
					}
				}
			}
		}
	}
	JOINT lowerback
	{
		OFFSET 0.004439 0.124404 -0.038385
		CHANNELS 3 Zrotation Yrotation Xrotation
		JOINT upperback
		{
			OFFSET 0.004488 0.137956 0.026820
			CHANNELS 3 Zrotation Yrotation Xrotation
			JOINT chest
			{
				OFFSET -0.002265 0.056032 0.002855
				CHANNELS 3 Zrotation Yrotation Xrotation
				JOINT lowerneck
				{
					OFFSET -0.013390 0.211636 -0.033468
					CHANNELS 3 Zrotation Yrotation Xrotation
					JOINT upperneck
					{
						OFFSET 0.010113 0.088937 0.050410
						CHANNELS 3 Zrotation Yrotation Xrotation
						End Site
						{
							OFFSET 0.000000 0.000000 0.000000
						}
					}
				}
				JOINT lclavicle
				{
					OFFSET 0.071702 0.114000 -0.018898
					CHANNELS 3 Zrotation Yrotation Xrotation
					JOINT lshoulder
					{
						OFFSET 0.122921 0.045205 -0.019046
						CHANNELS 3 Zrotation Yrotation Xrotation
						JOINT lelbow
						{
							OFFSET 0.255332 -0.015649 -0.022946
							CHANNELS 3 Zrotation Yrotation Xrotation
							JOINT lwrist
							{
								OFFSET 0.265709 0.012698 -0.007375
								CHANNELS 3 Zrotation Yrotation Xrotation
								End Site
								{
									OFFSET 0.000000 0.000000 0.000000
								}
							}
						}
					}
				}
				JOINT rclavicle
				{
					OFFSET -0.082954 0.112472 -0.023707
					CHANNELS 3 Zrotation Yrotation Xrotation
					JOINT rshoulder
					{
						OFFSET -0.113228 0.046853 -0.008472
						CHANNELS 3 Zrotation Yrotation Xrotation
						JOINT relbow
						{
							OFFSET -0.260127 -0.014369 -0.031269
							CHANNELS 3 Zrotation Yrotation Xrotation
							JOINT rwrist
							{
								OFFSET -0.269108 0.006794 -0.006027
								CHANNELS 3 Zrotation Yrotation Xrotation
								End Site
								{
									OFFSET 0.000000 0.000000 0.000000
								}
							}
						}
					}
				}
			}
		}
	}
}
MOTION
Frames: 10
Frame Time: 0.033333
-0.389298 -0.051691 1.002631 -117.451690 0.444683 81.957155 5.610236 -1.901617 -1.734076 -3.192023 -18.326410 16.121303 2.265157 7.567385 -15.962048 0.000000 -0.000000 0.000000 4.786448 2.120394 3.019180 5.165859 14.477015 12.343913 0.773020 -4.490320 -6.614519 0.000000 -0.000000 0.000000 1.661362 -2.806257 6.674426 4.629382 -5.751534 7.743158 0.032617 -4.623899 3.552293 1.534092 -0.925853 7.253045 -2.917398 6.364952 29.121454 -24.790088 6.794758 5.730924 -63.061977 -6.524349 3.404907 10.569403 -24.700429 11.455757 -7.151690 -1.953833 -9.278430 19.470418 -7.613258 1.505423 59.902674 -0.037982 7.708566 -17.050812 38.224763 -3.140930 27.481721 8.894735 -21.881388 
-0.398697 -0.053038 1.002258 -118.487520 0.437388 82.941190 5.418791 -1.993187 -4.301582 -3.486799 -17.579179 16.491279 2.659734 7.258853 -15.438213 0.000000 -0.000000 0.000000 4.577336 1.595044 1.962624 5.317298 16.365613 13.424900 0.142038 -4.603655 -7.306830 0.000000 -0.000000 0.000000 1.785619 -3.441842 6.211992 4.694812 -6.571935 7.014717 -0.020974 -4.942407 3.595634 0.832123 -1.611600 7.229069 -2.556041 7.133366 29.023326 -24.565271 6.598736 5.912201 -63.166141 -6.688465 3.202127 10.995740 -24.848502 11.320819 -7.319982 -1.785019 -9.420495 18.911516 -7.825731 1.981258 60.063095 -0.554617 6.982561 -18.039434 36.850773 -4.266637 29.753908 8.297535 -21.723802 
-0.411578 -0.053084 1.002760 -119.711727 0.236792 82.215040 4.495262 -2.080706 -4.422692 -3.028436 -17.278076 17.137615 2.540928 7.374293 -15.239573 0.000000 -0.000000 0.000000 4.285050 1.975073 3.575989 4.771784 17.112622 13.448644 0.472529 -4.076612 -8.117959 0.000000 -0.000000 0.000000 1.794009 -3.716247 6.839414 4.492895 -7.280243 7.428562 -0.018242 -5.231937 3.215823 0.597263 -1.889400 7.476556 -2.575761 7.434015 28.677185 -24.511042 6.194029 5.975277 -63.209972 -7.012297 3.218751 11.756789 -24.990847 10.881674 -6.592130 -2.029744 -9.111156 18.545017 -7.893165 1.649074 60.224258 -1.705111 6.621579 -18.126516 35.270392 -5.205420 30.592105 8.524236 -23.714001 
-0.422249 -0.053395 1.003315 -121.494644 0.477487 82.301320 4.235231 -3.662737 -5.132705 -3.032056 -18.932222 17.938047 2.366183 7.170228 -15.292272 0.000000 -0.000000 0.000000 4.483431 2.853022 4.050017 4.563125 18.220766 13.724703 0.781096 -4.225546 -8.515545 0.000000 -0.000000 0.000000 2.098643 -3.810871 6.816989 4.627690 -7.233227 7.319697 0.105107 -5.294549 3.019126 0.209975 -2.539608 7.997640 -2.421808 8.246551 27.750529 -24.851469 6.002831 6.134567 -63.431376 -7.224026 3.269842 13.107867 -26.258613 10.351827 -9.275308 -1.537715 -8.913446 18.164103 -8.074352 1.731008 59.850236 -2.963743 5.629926 -18.870575 33.638385 -5.536181 34.031217 7.674413 -21.397923 
-0.430038 -0.052813 1.003321 -123.460956 0.579686 82.328525 4.095092 -4.568971 -5.250873 -3.365848 -21.373671 18.256875 2.493358 6.515669 -15.538875 0.000000 -0.000000 0.000000 4.317174 3.197753 4.562721 4.741487 19.606448 13.556716 1.168977 -4.164373 -8.528818 0.000000 -0.000000 0.000000 2.014700 -3.464759 6.706219 4.843053 -7.045267 7.085094 0.170046 -5.204815 3.328283 -0.041770 -2.437974 8.042578 -2.347287 8.288406 27.368623 -24.407709 5.602628 6.129256 -63.436850 -7.648944 4.005352 12.380072 -26.453051 10.055019 -7.679795 -1.790484 -9.857866 18.147824 -8.111760 1.598360 59.451763 -3.973736 5.789443 -18.971283 32.916402 -5.814082 34.576218 7.160173 -21.323000 
-0.439856 -0.051920 1.003450 -126.359197 0.686823 82.227064 3.715205 -6.236581 -4.712320 -3.258559 -25.762123 18.188615 1.915621 5.546523 -16.387356 0.000000 -0.000000 0.000000 4.581560 3.837769 4.820481 4.309748 21.052543 14.415544 1.630838 -3.411588 -9.433927 0.000000 -0.000000 0.000000 2.004764 -3.241378 6.799947 4.778170 -6.572761 6.904887 0.228052 -4.993485 3.132124 0.018682 -2.389408 8.401679 -2.343682 8.339017 26.658204 -24.719870 5.787633 6.037054 -62.994757 -7.703032 4.465475 12.747267 -28.013485 9.450314 -8.665332 -1.822229 -10.554579 18.257744 -7.977760 1.415233 59.223600 -4.463483 5.248819 -17.850862 30.300811 -5.924830 35.557613 6.999835 -20.280048 
-0.448290 -0.051473 1.003120 -129.547678 0.665325 82.483103 3.804424 -8.525617 -4.635008 -4.238142 -28.850330 18.689214 1.714638 4.943102 -17.593798 0.000000 -0.000000 0.000000 4.277947 4.979412 5.073024 4.530607 22.914346 14.316647 1.926968 -3.588390 -9.664362 0.000000 -0.000000 0.000000 1.410649 -3.087603 6.631720 4.949425 -6.274321 6.507532 0.329610 -5.027602 3.424295 0.183341 -2.450400 8.290670 -2.442462 7.898044 26.332761 -24.733637 6.968467 5.758883 -62.971252 -7.948404 5.252184 12.915872 -29.864125 9.296236 -7.326699 -2.173260 -12.070484 18.392824 -7.961021 1.973210 58.815488 -4.245647 6.323750 -18.086930 29.133542 -5.186058 35.836416 5.895956 -20.048076 
-0.457733 -0.051469 1.002988 -132.856100 0.732813 82.948825 3.825950 -9.906805 -4.603501 -4.561868 -31.455950 18.924828 1.136427 3.902457 -18.320621 0.000000 -0.000000 0.000000 3.952452 5.760547 4.755883 4.470294 24.226524 14.705579 2.453444 -2.607206 -10.329903 0.000000 -0.000000 0.000000 1.310473 -2.770610 6.209351 4.931843 -6.031587 6.335108 0.238113 -4.988501 3.149529 0.204315 -2.329518 8.740587 -2.368212 7.736055 25.490180 -24.521440 7.336585 5.921848 -62.914336 -7.554930 5.969084 13.005869 -31.543491 9.439113 -7.648520 -2.773772 -14.403078 18.541489 -7.812639 1.921748 59.107675 -4.286160 6.650743 -18.324140 27.262150 -4.613408 36.574972 5.860829 -19.856127 
-0.468316 -0.051943 1.003122 -136.888815 0.956787 83.327186 4.107920 -10.565541 -4.321577 -5.038259 -34.222917 19.286740 -0.478282 1.672541 -19.146874 0.000000 -0.000000 0.000000 3.686839 6.450723 4.481456 4.058014 25.841651 15.043465 3.343644 -0.877024 -10.934690 0.000000 -0.000000 0.000000 0.926157 -2.583880 6.202649 5.081879 -5.889200 6.063072 0.371451 -4.700668 2.819364 0.347859 -1.846502 9.015205 -2.432829 7.138058 24.770465 -24.072786 7.549041 5.890207 -63.345622 -7.307634 6.582926 12.840384 -32.513810 9.518554 -6.921323 -3.156553 -13.966477 18.720867 -7.777154 1.942391 59.559267 -4.661022 6.598480 -18.176088 27.061691 -5.360655 36.762067 5.693501 -20.890370 
-0.478033 -0.052705 1.003053 -140.113643 1.279750 83.540353 4.388123 -10.452268 -3.820659 -5.390958 -35.628226 19.212590 -1.401518 0.316793 -18.722560 0.000000 -0.000000 0.000000 3.274539 6.745766 4.317445 3.992939 26.775635 15.160586 3.915912 0.913324 -10.996183 0.000000 -0.000000 0.000000 0.987785 -2.594203 5.980141 5.000276 -5.733725 6.170041 0.363787 -4.675052 2.604574 0.248517 -1.458486 9.211631 -2.474333 7.021336 24.404041 -23.951210 7.552030 5.640589 -63.627845 -6.972748 6.515933 12.669870 -32.730668 10.113939 -9.719672 -3.367423 -13.670185 19.083743 -7.845802 1.944130 59.603676 -4.575294 6.043507 -17.836820 27.471140 -5.139108 38.085358 5.412818 -19.949017 
